<svg width="57" height="58" viewBox="0 0 57 58" fill="none" xmlns="http://www.w3.org/2000/svg">
<path d="M54.0128 1.43196L55.5761 3.00552C57.7302 5.1765 57.4043 9.02504 54.8421 11.6014L22.604 44.0513L12.1592 47.8972C10.8476 48.3826 9.57048 47.7532 9.31081 46.497C9.22306 46.0414 9.26437 45.57 9.43004 45.1368L13.325 34.5327L45.473 2.17074C48.0352 -0.405631 51.8586 -0.736345 54.0128 1.43463V1.43196ZM21.1971 4.65909C21.545 4.65909 21.8896 4.72807 22.211 4.86211C22.5325 4.99614 22.8246 5.19259 23.0706 5.44025C23.3167 5.68791 23.5119 5.98192 23.645 6.3055C23.7782 6.62908 23.8467 6.97589 23.8467 7.32613C23.8467 7.67638 23.7782 8.02319 23.645 8.34677C23.5119 8.67035 23.3167 8.96436 23.0706 9.21202C22.8246 9.45968 22.5325 9.65613 22.211 9.79016C21.8896 9.9242 21.545 9.99318 21.1971 9.99318H10.5985C9.19308 9.99318 7.84519 10.5552 6.85139 11.5555C5.85758 12.5558 5.29927 13.9126 5.29927 15.3273V47.3318C5.29927 48.7465 5.85758 50.1033 6.85139 51.1036C7.84519 52.1039 9.19308 52.6659 10.5985 52.6659H42.3941C43.7996 52.6659 45.1475 52.1039 46.1413 51.1036C47.1351 50.1033 47.6934 48.7465 47.6934 47.3318V36.6636C47.6934 35.9563 47.9726 35.2779 48.4695 34.7778C48.9664 34.2776 49.6403 33.9966 50.343 33.9966C51.0458 33.9966 51.7197 34.2776 52.2166 34.7778C52.7135 35.2779 52.9927 35.9563 52.9927 36.6636V47.3318C52.9927 50.1612 51.876 52.8747 49.8884 54.8754C47.9008 56.876 45.205 58 42.3941 58H10.5985C7.78763 58 5.09185 56.876 3.10424 54.8754C1.11663 52.8747 0 50.1612 0 47.3318V15.3273C0 12.4979 1.11663 9.7844 3.10424 7.78373C5.09185 5.78305 7.78763 4.65909 10.5985 4.65909H21.1971Z" fill="#FF0000"/>
</svg>
