<svg width="614" height="420" viewBox="0 0 614 420" fill="none" xmlns="http://www.w3.org/2000/svg">
<path d="M307 420C476.551 420 614 411.363 614 400.708C614 390.054 476.551 381.417 307 381.417C137.449 381.417 0 390.054 0 400.708C0 411.363 137.449 420 307 420Z" fill="#D0CDE1"/>
<path d="M485.542 0H128.459V145.835H485.542V0Z" fill="#3F3D56"/>
<path d="M179.779 54.291H153.157C151.34 43.7763 151.34 33.0274 153.157 22.5127H179.779C176.78 32.8927 176.78 43.911 179.779 54.291Z" fill="#FF6584"/>
<path d="M235.227 45.39H261.849C263.666 34.8753 263.666 24.1263 261.849 13.6116H235.227C238.226 23.9916 238.226 35.01 235.227 45.39Z" fill="#008AFF"/>
<path d="M402.235 60.3553C416.302 60.5034 430.356 60.0685 444.395 59.0508L443.462 57.8255C441.164 63.6551 441.228 69.7993 441.532 75.9661C441.609 77.5112 442.093 79.5948 441.78 81.1251C441.386 83.0496 439.66 82.5895 437.944 82.6451C434.164 82.7675 430.383 82.8554 426.601 82.9089C423.029 82.9594 419.457 82.9794 415.885 82.9687C414.204 82.9634 412.523 82.9514 410.843 82.9328C408.869 82.9108 406.625 83.4846 406.115 81.1957C405.789 79.7296 406.118 77.8011 406.119 76.2933L406.122 70.7782L406.13 59.7478C406.121 59.4969 406.016 59.2591 405.835 59.0847C405.655 58.9102 405.414 58.8127 405.163 58.8127C404.912 58.8127 404.671 58.9102 404.491 59.0847C404.31 59.2591 404.205 59.4969 404.196 59.7478L404.187 73.2293L404.183 79.3573C404.182 80.5745 403.93 82.0451 404.384 83.2007C405.428 85.8588 409.94 84.8615 412.103 84.8815C416.515 84.9221 420.928 84.9154 425.34 84.8613C429.752 84.8079 434.164 84.7076 438.574 84.5606C440.474 84.4973 443.103 84.9299 443.679 82.584C444.083 80.9393 443.612 78.7949 443.526 77.1166C443.428 75.2013 443.322 73.2856 443.296 71.3676C443.236 66.8887 443.675 62.5315 445.327 58.3402C445.366 58.1965 445.371 58.0459 445.342 57.8999C445.314 57.7539 445.252 57.6164 445.162 57.498C445.072 57.3797 444.956 57.2836 444.823 57.2172C444.69 57.1507 444.543 57.1158 444.395 57.1149C430.363 58.1325 416.31 58.5673 402.235 58.4194C401.984 58.4281 401.747 58.5339 401.572 58.7145C401.398 58.8951 401.301 59.1363 401.301 59.3874C401.301 59.6384 401.398 59.8797 401.572 60.0603C401.747 60.2408 401.984 60.3466 402.235 60.3553L402.235 60.3553Z" fill="#F1F1F1"/>
<path d="M406.243 61.4072C412.265 63.5407 418.136 66.0789 423.816 69.0044C428.912 71.6411 435.583 74.5213 439.09 79.2337C439.825 80.2213 441.505 79.2572 440.76 78.2566C437.179 73.4445 431.013 70.613 425.834 67.8779C419.683 64.6457 413.307 61.8594 406.757 59.5405C405.583 59.1218 405.077 60.9916 406.243 61.4072Z" fill="#F1F1F1"/>
<path d="M444.066 57.9597C437.676 60.6952 432.262 65.9657 426.552 69.8711C420.371 74.0983 414.006 78.0323 407.457 81.673C406.37 82.2805 407.344 83.9532 408.433 83.3446C414.968 79.6912 421.333 75.7573 427.528 71.5427C433.237 67.6381 438.653 62.3661 445.042 59.6312C446.182 59.1429 445.198 57.4748 444.066 57.9597Z" fill="#F1F1F1"/>
<path d="M277.123 63.9675C290.158 64.166 303.192 64.114 316.226 63.8114C317.468 63.7825 317.473 61.8465 316.226 61.8755C303.193 62.1781 290.159 62.2301 277.123 62.0316C276.873 62.0403 276.635 62.1461 276.461 62.3267C276.287 62.5073 276.189 62.7485 276.189 62.9995C276.189 63.2506 276.287 63.4918 276.461 63.6724C276.635 63.8529 276.873 63.9587 277.123 63.9675Z" fill="#F1F1F1"/>
<path d="M278.219 72.7443C291.619 72.9584 305.018 72.9007 318.417 72.5715C319.66 72.541 319.664 70.605 318.417 70.6356C305.02 70.9649 291.62 71.0225 278.219 70.8084C277.968 70.8172 277.731 70.923 277.557 71.1035C277.383 71.2841 277.285 71.5253 277.285 71.7764C277.285 72.0274 277.383 72.2687 277.557 72.4492C277.731 72.6298 277.968 72.7356 278.219 72.7443Z" fill="#F1F1F1"/>
<path d="M276.752 82.221L314.758 80.4541C315.997 80.3965 316.005 78.4603 314.758 78.5182L276.752 80.2851C275.513 80.3428 275.506 82.2789 276.752 82.221Z" fill="#F1F1F1"/>
<path d="M335.954 73.0167H372.131C372.381 73.008 372.619 72.9022 372.793 72.7216C372.967 72.541 373.065 72.2998 373.065 72.0487C373.065 71.7977 372.967 71.5564 372.793 71.3759C372.619 71.1953 372.381 71.0895 372.131 71.0808H335.954C335.704 71.0895 335.466 71.1953 335.292 71.3759C335.118 71.5564 335.021 71.7977 335.021 72.0487C335.021 72.2998 335.118 72.541 335.292 72.7216C335.466 72.9022 335.704 73.008 335.954 73.0167Z" fill="#F1F1F1"/>
<path d="M370.546 61.949L376.198 67.114C376.844 67.7046 378.622 68.9241 379.024 69.6964C379.854 71.2932 378.962 70.9289 377.539 71.4822C374.042 72.8752 370.82 74.8781 368.023 77.3979C367.087 78.2232 368.459 79.588 369.39 78.7668C371.942 76.471 374.873 74.6376 378.053 73.3489C379.193 72.8974 381.356 72.6329 381.898 71.2732C382.561 69.609 380.449 68.381 379.449 67.4667L371.913 60.5802C370.995 59.7417 369.624 61.1069 370.546 61.949Z" fill="#F1F1F1"/>
<path d="M282.751 137.519H309.373C311.19 127.004 311.19 116.255 309.373 105.741H282.751C285.75 116.121 285.75 127.139 282.751 137.519Z" fill="#008AFF"/>
<path d="M171.888 113.643H198.51C200.327 103.128 200.327 92.3796 198.51 81.8649H171.888C174.887 92.2449 174.887 103.263 171.888 113.643Z" fill="#008AFF"/>
<path d="M340.116 43.952H366.739C368.555 33.4373 368.555 22.6884 366.739 12.1737H340.116C343.115 22.5537 343.115 33.572 340.116 43.952Z" fill="#008AFF"/>
<path d="M604.913 367.698L608.383 381.594L593.115 385.763L591.727 371.172L604.913 367.698Z" fill="#FBBEBE"/>
<path d="M549.391 385.068V398.27L534.122 401.049L531.347 394.101L536.899 382.289L549.391 385.068Z" fill="#FBBEBE"/>
<path d="M579.929 241.241L577.846 260.001L579.235 296.131C579.51 296.126 579.783 296.176 580.038 296.278C580.293 296.381 580.525 296.534 580.72 296.729C580.914 296.924 581.067 297.156 581.17 297.411C581.273 297.667 581.322 297.941 581.317 298.216C581.317 300.3 579.235 299.606 581.317 300.995C582.433 301.755 583.592 302.45 584.787 303.08L606.996 370.477C606.996 370.477 601.443 377.425 591.033 375.341L588.951 368.393C588.951 368.393 584.787 364.224 584.787 362.139C584.787 360.055 586.175 359.36 584.787 357.275C583.399 355.191 562.578 312.807 562.578 312.807L552.862 295.437L550.085 319.06C550.085 319.06 555.638 348.938 554.25 362.834C552.861 376.73 550.085 391.322 550.085 391.322L533.429 388.542C533.353 386.3 532.63 384.128 531.347 382.289C529.265 379.51 526.488 380.205 529.265 378.12C532.041 376.036 535.511 378.12 532.735 375.341C529.959 372.562 529.959 369.782 529.959 369.782V367.698L525.794 314.197L518.16 244.02L579.929 241.241Z" fill="#2F2E41"/>
<path d="M532.735 114.784C543.084 114.784 551.474 106.385 551.474 96.0239C551.474 85.663 543.084 77.2638 532.735 77.2638C522.386 77.2638 513.996 85.663 513.996 96.0239C513.996 106.385 522.386 114.784 532.735 114.784Z" fill="#FBBEBE"/>
<path d="M549.044 96.371L556.678 115.132L538.634 128.333L527.529 108.878L549.044 96.371Z" fill="#FBBEBE"/>
<path d="M550.086 110.615L557.026 107.141L561.19 116.868C561.19 116.868 588.257 125.206 586.175 163.421C584.093 201.636 579.235 216.227 579.235 216.227C579.235 216.227 591.033 241.241 584.093 244.02C577.153 246.799 518.161 257.222 516.773 247.494C515.385 237.767 521.631 180.792 521.631 180.792C521.631 180.792 519.549 139.797 536.899 131.46L533.429 123.817L550.086 110.615Z" fill="#D0CDE1"/>
<path d="M511.914 245.41C511.914 245.41 495.952 262.085 504.974 266.254C513.996 270.423 519.548 247.494 519.548 247.494L511.914 245.41Z" fill="#FBBEBE"/>
<path d="M544.533 394.796L552.167 392.016C552.167 392.016 560.496 410.776 553.556 410.776H535.511C535.511 410.776 525.1 407.302 519.548 407.302C513.996 407.302 503.586 396.88 511.22 392.016C518.854 387.153 528.571 388.542 528.571 388.542L531.347 382.289L534.817 392.016C534.817 392.016 538.981 398.965 544.533 394.796Z" fill="#2F2E41"/>
<path d="M600.75 379.51C600.75 379.51 605.096 376.764 607.434 377.789C609.772 378.815 611.16 389.932 611.16 389.932C611.16 389.932 618.1 398.27 602.832 399.659C587.563 401.049 584.093 398.27 582.705 394.101C581.317 389.932 584.093 385.763 584.093 385.763L588.257 384.373C588.257 384.373 593.115 380.899 591.727 379.51C590.339 378.12 591.727 375.341 591.727 375.341C591.727 375.341 596.586 385.068 600.75 379.51Z" fill="#2F2E41"/>
<path d="M539.144 95.7233C539.068 95.1161 538.931 94.5181 538.737 93.9381C537.73 91.8228 533.8 92.4402 533.1 90.2041C532.963 89.7665 532.991 89.2904 532.857 88.852C532.515 87.7338 531.201 87.1793 530.034 87.233C528.877 87.393 527.741 87.6857 526.651 88.1052C523.905 88.8853 520.984 88.5875 518.147 88.2834C516.881 88.2408 515.641 87.9176 514.516 87.3371C513.441 86.6753 512.667 85.343 513.058 84.1421C513.433 82.9907 514.692 82.358 515.258 81.2876C516.156 79.5879 515.058 77.3927 515.787 75.6134C516.956 72.7593 521.381 73.3324 523.63 71.2228C524.175 70.7107 524.568 70.0561 525.091 69.5208C526.643 67.9328 529.094 67.6255 531.303 67.8445C533.511 68.0636 535.681 68.7128 537.9 68.6735C540.004 68.6363 542.209 67.9948 544.148 68.8141C545.289 69.3983 546.29 70.2217 547.083 71.2282L552.056 76.6885C552.739 77.3331 553.265 78.126 553.593 79.0063C553.893 80.0525 553.617 81.1758 553.745 82.2565C554.036 84.7212 556.341 86.5829 556.652 89.0452C556.715 89.8088 556.678 90.5774 556.542 91.3315L555.846 96.4734C555.811 96.9749 555.677 97.4645 555.453 97.9143C555.25 98.2608 554.944 98.5344 554.716 98.8647C554.072 99.7971 554.131 101.03 553.811 102.117C553.491 103.204 552.344 104.28 551.34 103.756C550.685 103.414 550.252 100.587 549.456 99.853C548.348 98.8306 547.769 98.9566 546.402 98.9739C543.663 99.0086 540.021 99.2437 539.144 95.7233Z" fill="#2F2E41"/>
<path d="M542.452 136.323C542.452 136.323 563.273 144.661 557.026 163.421C550.78 182.181 534.123 239.851 534.123 239.851L524.407 244.715L521.631 252.358L508.444 247.494L510.526 237.072C510.526 237.072 511.22 236.377 511.22 233.598C511.22 230.819 508.444 230.124 511.914 230.124C515.385 230.124 515.385 226.65 515.385 226.65L527.877 148.83C527.877 148.83 527.877 135.628 542.452 136.323Z" fill="#D0CDE1"/>
<path opacity="0.1" d="M558.067 167.243L536.552 240.893L527.529 249.926L532.734 240.546L558.067 167.243Z" fill="black"/>
<path d="M41.7969 123.144L63.6071 126.783L70.8772 92.2104L53.308 84.932L41.7969 123.144Z" fill="#2F2E41"/>
<path d="M71.7861 116.169C82.1586 116.169 90.5672 107.751 90.5672 97.3662C90.5672 86.9818 82.1586 78.5636 71.7861 78.5636C61.4135 78.5636 53.0049 86.9818 53.0049 97.3662C53.0049 107.751 61.4135 116.169 71.7861 116.169Z" fill="#A0616A"/>
<path d="M63.6081 107.981C63.6081 107.981 65.4256 131.029 51.4912 132.848C37.5568 134.668 63.6081 175.912 70.2724 175.306C76.9367 174.699 89.0536 130.422 89.0536 130.422C89.0536 130.422 73.3016 119.505 78.7542 109.8L63.6081 107.981Z" fill="#A0616A"/>
<path d="M40.2832 191.986C40.2832 191.986 42.7066 209.575 49.9767 209.575C57.2469 209.575 45.13 189.559 45.13 189.559L40.2832 191.986Z" fill="#A0616A"/>
<path d="M146.305 209.575C146.305 209.575 164.48 224.738 162.057 229.591C159.634 234.443 143.882 224.132 142.67 212.001L146.305 209.575Z" fill="#A0616A"/>
<path d="M36.6479 267.802L25.1368 310.866L12.4141 363.028H24.5309C24.5309 363.028 28.7719 346.652 36.6478 338.16C36.6478 338.16 44.5238 324.817 44.5238 315.719L63.305 271.442L36.6479 267.802Z" fill="#A0616A"/>
<path d="M86.3271 270.228L89.9622 310.866C89.9622 310.866 89.3564 339.98 89.9622 346.652C90.568 353.324 89.9622 363.028 89.9622 363.028H100.867C100.867 363.028 111.167 327.243 108.138 307.834L112.378 262.344L86.3271 270.228Z" fill="#A0616A"/>
<path d="M71.7864 158.626C71.7864 158.626 55.4635 145.676 59.687 127.586C59.687 127.586 43.3117 128.299 36.6474 134.971C29.9831 141.643 38.4649 164.085 38.4649 164.085C38.4649 164.085 53.0052 188.346 50.5818 199.264C48.1584 210.182 22.1071 267.802 30.5889 271.442C39.0708 275.081 90.5675 287.818 116.619 266.589C116.619 266.589 123.283 206.542 96.626 187.133V171.97C96.626 171.97 101.473 167.724 99.0493 156.807C99.0493 156.807 109.349 138.004 103.29 134.365C97.2318 130.726 83.3151 125.392 83.3151 125.392C83.3151 125.392 84.5091 152.561 71.7864 158.626Z" fill="#2F2E41"/>
<path d="M40.2832 134.971C40.2832 134.971 32.4072 133.758 24.5312 145.282C16.6553 156.807 -3.94343 175.003 5.75006 184.101C15.4436 193.199 41.4949 199.264 41.4949 199.264L47.5533 188.346L21.502 175.609L43.3124 159.233L40.2832 134.971Z" fill="#2F2E41"/>
<path d="M100.261 134.971C100.261 134.971 108.743 134.971 112.378 145.282C116.013 155.593 137.218 190.772 137.218 190.772L149.335 209.575L140.853 219.28L117.225 192.592L94.8086 155.593L100.261 134.971Z" fill="#2F2E41"/>
<path d="M26.9544 361.815H9.99072L6.35565 391.535C6.35565 391.535 -3.33784 407.305 11.2024 405.486C25.7427 403.666 20.8959 387.29 20.8959 387.29L24.531 381.224L25.7427 393.962L26.9544 393.355V379.405C26.9544 379.405 33.6186 373.339 26.9544 361.815Z" fill="#2F2E41"/>
<path d="M103.897 361.815L88.1448 360.602L85.1156 394.568C85.1156 394.568 83.298 407.305 94.2032 405.486C105.108 403.666 101.473 393.355 101.473 393.355V374.552L103.897 361.815Z" fill="#2F2E41"/>
<path d="M58.1552 78.2603C58.1552 78.2603 49.3291 81.2057 48.8809 92.8378C48.8353 94.6982 49.0414 96.5562 49.4935 98.3613C49.9905 100.47 50.31 105.007 46.4584 110.936C43.8794 114.851 41.5234 118.908 39.4016 123.089L39.374 123.144L49.0675 124.357L51.1287 108.271C52.128 100.472 54.2688 92.863 57.4823 85.6885L57.5494 85.5387C57.5494 85.5387 61.7903 93.4237 70.2721 93.4237L67.2429 90.391C67.2429 90.391 80.5714 95.8498 85.4182 95.8498C85.4182 95.8498 89.0533 98.2759 85.4182 101.915C81.7831 105.554 74.513 114.046 78.7539 120.718C82.9948 127.39 79.3598 129.209 79.3598 129.209L86.0241 125.57L89.0533 123.75V126.177L104.805 124.357C104.805 124.357 109.046 123.75 99.9585 113.439C99.9585 113.439 97.5587 109.435 98.6086 105.982C99.4714 103.357 99.6981 100.565 99.27 97.835C97.2342 86.4645 89.2465 63.8584 58.1552 78.2603Z" fill="#2F2E41"/>
<path d="M402.501 418.817C402.419 418.682 400.474 415.431 399.8 408.682C399.182 402.489 399.58 392.051 404.987 377.491C415.23 349.908 402.626 327.653 402.497 327.431L403.119 327.07C405.546 331.719 407.299 336.691 408.325 341.836C410.864 353.815 409.94 366.27 405.66 377.742C395.434 405.278 403.037 418.313 403.115 418.442L402.501 418.817Z" fill="#3F3D56"/>
<path d="M398.496 325.811C401.076 325.811 403.167 323.717 403.167 321.134C403.167 318.551 401.076 316.457 398.496 316.457C395.916 316.457 393.824 318.551 393.824 321.134C393.824 323.717 395.916 325.811 398.496 325.811Z" fill="#3F3D56"/>
<path d="M413.229 343.08C415.809 343.08 417.901 340.986 417.901 338.403C417.901 335.82 415.809 333.726 413.229 333.726C410.649 333.726 408.558 335.82 408.558 338.403C408.558 340.986 410.649 343.08 413.229 343.08Z" fill="#3F3D56"/>
<path d="M403.168 354.592C405.748 354.592 407.839 352.498 407.839 349.915C407.839 347.332 405.748 345.238 403.168 345.238C400.588 345.238 398.496 347.332 398.496 349.915C398.496 352.498 400.588 354.592 403.168 354.592Z" fill="#008AFF"/>
<path d="M415.385 364.305C417.965 364.305 420.057 362.211 420.057 359.629C420.057 357.046 417.965 354.952 415.385 354.952C412.805 354.952 410.714 357.046 410.714 359.629C410.714 362.211 412.805 364.305 415.385 364.305Z" fill="#008AFF"/>
<path d="M399.574 379.415C402.154 379.415 404.245 377.321 404.245 374.738C404.245 372.155 402.154 370.062 399.574 370.062C396.994 370.062 394.902 372.155 394.902 374.738C394.902 377.321 396.994 379.415 399.574 379.415Z" fill="#3F3D56"/>
<path d="M405.324 418.989C405.324 418.989 400.652 407.476 414.667 398.842L405.324 418.989Z" fill="#3F3D56"/>
<path d="M399.579 418.78C399.579 418.78 397.452 406.538 380.997 406.643L399.579 418.78Z" fill="#3F3D56"/>
<path d="M214.21 384.819C214.128 384.684 212.183 381.434 211.509 374.684C210.891 368.492 211.289 358.054 216.696 343.494C226.939 315.911 214.335 293.655 214.206 293.434L214.828 293.072C217.255 297.722 219.008 302.694 220.034 307.838C222.573 319.817 221.649 332.273 217.369 343.745C207.143 371.281 214.746 384.316 214.824 384.445L214.21 384.819Z" fill="#D0CDE1"/>
<path d="M210.205 291.814C212.785 291.814 214.876 289.72 214.876 287.137C214.876 284.554 212.785 282.46 210.205 282.46C207.625 282.46 205.533 284.554 205.533 287.137C205.533 289.72 207.625 291.814 210.205 291.814Z" fill="#3F3D56"/>
<path d="M224.938 309.082C227.518 309.082 229.61 306.988 229.61 304.405C229.61 301.823 227.518 299.729 224.938 299.729C222.358 299.729 220.267 301.823 220.267 304.405C220.267 306.988 222.358 309.082 224.938 309.082Z" fill="#3F3D56"/>
<path d="M214.877 320.595C217.457 320.595 219.548 318.501 219.548 315.918C219.548 313.335 217.457 311.241 214.877 311.241C212.297 311.241 210.205 313.335 210.205 315.918C210.205 318.501 212.297 320.595 214.877 320.595Z" fill="#D0CDE1"/>
<path d="M227.094 330.308C229.674 330.308 231.766 328.214 231.766 325.631C231.766 323.048 229.674 320.954 227.094 320.954C224.514 320.954 222.423 323.048 222.423 325.631C222.423 328.214 224.514 330.308 227.094 330.308Z" fill="#D0CDE1"/>
<path d="M211.283 345.418C213.863 345.418 215.954 343.324 215.954 340.741C215.954 338.158 213.863 336.064 211.283 336.064C208.703 336.064 206.611 338.158 206.611 340.741C206.611 343.324 208.703 345.418 211.283 345.418Z" fill="#3F3D56"/>
<path d="M217.033 384.992C217.033 384.992 212.361 373.479 226.376 364.845L217.033 384.992Z" fill="#D0CDE1"/>
<path d="M211.287 384.783C211.287 384.783 209.161 372.54 192.706 372.645L211.287 384.783Z" fill="#D0CDE1"/>
</svg>
