<svg width="776" height="484" viewBox="0 0 776 484" fill="none" xmlns="http://www.w3.org/2000/svg">
<g clip-path="url(#clip0)">
<path d="M589.921 430.633C686.959 430.633 765.623 351.901 765.623 254.78C765.623 157.658 686.959 78.9261 589.921 78.9261C492.883 78.9261 414.219 157.658 414.219 254.78C414.219 351.901 492.883 430.633 589.921 430.633Z" fill="#F2F2F2"/>
<path d="M95.3265 134.313C132.384 134.313 162.425 104.246 162.425 67.1567C162.425 30.0671 132.384 0 95.3265 0C58.2688 0 28.2275 30.0671 28.2275 67.1567C28.2275 104.246 58.2688 134.313 95.3265 134.313Z" fill="#FF6584"/>
<path d="M215.69 360.707C312.727 360.707 391.392 281.975 391.392 184.854C391.392 87.7323 312.727 9.00006 215.69 9.00006C118.652 9.00006 39.9873 87.7323 39.9873 184.854C39.9873 281.975 118.652 360.707 215.69 360.707Z" fill="#F2F2F2"/>
<path d="M207.389 370.4C313.977 370.4 400.384 365.751 400.384 360.015C400.384 354.28 313.977 349.63 207.389 349.63C100.8 349.63 14.3926 354.28 14.3926 360.015C14.3926 365.751 100.8 370.4 207.389 370.4Z" fill="#3F3D56"/>
<path opacity="0.1" d="M168.651 367.535C248.497 367.535 313.225 364.329 313.225 360.373C313.225 356.418 248.497 353.211 168.651 353.211C88.8052 353.211 24.0771 356.418 24.0771 360.373C24.0771 364.329 88.8052 367.535 168.651 367.535Z" fill="black"/>
<path d="M583.004 443.788C689.592 443.788 776 438.673 776 432.364C776 426.055 689.592 420.941 583.004 420.941C476.415 420.941 390.008 426.055 390.008 432.364C390.008 438.673 476.415 443.788 583.004 443.788Z" fill="#3F3D56"/>
<path opacity="0.1" d="M544.266 440.637C624.112 440.637 688.84 437.109 688.84 432.758C688.84 428.407 624.112 424.88 544.266 424.88C464.42 424.88 399.692 428.407 399.692 432.758C399.692 437.109 464.42 440.637 544.266 440.637Z" fill="black"/>
<path d="M277.321 411.94C345.341 411.94 400.481 409.151 400.481 405.709C400.481 402.268 345.341 399.478 277.321 399.478C209.302 399.478 154.161 402.268 154.161 405.709C154.161 409.151 209.302 411.94 277.321 411.94Z" fill="#3F3D56"/>
<path d="M59.4227 387.946C92.2409 387.946 118.845 386.6 118.845 384.939C118.845 383.279 92.2409 381.933 59.4227 381.933C26.6044 381.933 0 383.279 0 384.939C0 386.6 26.6044 387.946 59.4227 387.946Z" fill="#3F3D56"/>
<path d="M659.179 484C720.259 484 769.774 481.495 769.774 478.405C769.774 475.314 720.259 472.809 659.179 472.809C598.099 472.809 548.584 475.314 548.584 478.405C548.584 481.495 598.099 484 659.179 484Z" fill="#3F3D56"/>
<path d="M647.336 299.782H425.979V431.326H647.336V299.782Z" fill="#3F3D56"/>
<path d="M497.228 416.787C524.735 416.787 547.034 394.469 547.034 366.938C547.034 339.408 524.735 317.09 497.228 317.09C469.721 317.09 447.423 339.408 447.423 366.938C447.423 394.469 469.721 416.787 497.228 416.787Z" fill="#008AFF"/>
<path d="M578.854 320.552H562.252V337.168H578.854V320.552Z" fill="#008AFF"/>
<path opacity="0.5" d="M599.606 320.552H583.004V337.168H599.606V320.552Z" fill="#008AFF"/>
<path opacity="0.2" d="M620.359 320.552H603.757V337.168H620.359V320.552Z" fill="#008AFF"/>
<path d="M578.854 341.322H562.252V357.938H578.854V341.322Z" fill="#2F2E41"/>
<path opacity="0.5" d="M599.606 341.322H583.004V357.938H599.606V341.322Z" fill="#2F2E41"/>
<path opacity="0.2" d="M620.359 341.322H603.757V357.938H620.359V341.322Z" fill="#2F2E41"/>
<path d="M578.854 362.092H562.252V378.708H578.854V362.092Z" fill="#FF6584"/>
<path opacity="0.5" d="M599.606 362.092H583.004V378.708H599.606V362.092Z" fill="#FF6584"/>
<path opacity="0.2" d="M620.359 362.092H603.757V378.708H620.359V362.092Z" fill="#FF6584"/>
<path opacity="0.5" d="M497.229 317.09V416.787C524.735 416.787 548.417 394.469 548.417 366.938C548.417 339.408 524.735 317.09 497.229 317.09Z" fill="#3F3D56"/>
<path d="M694.721 309.128C694.721 309.128 723.774 322.283 713.398 337.514C703.021 352.746 671.893 381.824 671.201 388.055C670.51 394.286 666.359 399.824 666.359 399.824C666.359 399.824 652.524 385.285 653.908 383.901C655.291 382.516 669.126 369.362 669.818 365.9C670.51 362.438 691.262 335.437 691.262 335.437L672.585 318.821L694.721 309.128Z" fill="#FFB9B9"/>
<path opacity="0.1" d="M694.721 309.128C694.721 309.128 723.774 322.283 713.398 337.514C703.021 352.746 671.893 381.824 671.201 388.055C670.51 394.286 666.359 399.824 666.359 399.824C666.359 399.824 652.524 385.285 653.908 383.901C655.291 382.516 669.126 369.362 669.818 365.9C670.51 362.438 691.262 335.437 691.262 335.437L672.585 318.821L694.721 309.128Z" fill="black"/>
<path d="M658.059 338.206C658.059 338.206 678.119 346.515 676.736 359.669C675.352 372.823 700.947 410.21 700.947 410.21C700.947 410.21 703.713 419.21 703.022 421.979C702.33 424.749 721.007 424.056 721.007 424.056V417.825C721.007 417.825 706.48 392.901 705.097 385.978C703.713 379.054 695.413 352.053 695.413 352.053C695.413 352.053 692.646 327.821 678.811 327.821C674.784 327.821 670.812 328.76 667.21 330.562C663.608 332.365 660.475 334.982 658.059 338.206Z" fill="#FFB9B9"/>
<path d="M659.096 275.55C659.096 275.55 700.6 309.475 699.217 312.244C697.833 315.013 677.773 325.398 674.314 326.091C670.855 326.783 646.383 275.55 646.383 275.55H659.096Z" fill="#2F2E41"/>
<path opacity="0.1" d="M659.096 275.55C659.096 275.55 700.6 309.475 699.217 312.244C697.833 315.013 677.773 325.398 674.314 326.091C670.855 326.783 646.383 275.55 646.383 275.55H659.096Z" fill="black"/>
<path d="M614.132 282.473C614.132 282.473 609.982 301.166 621.05 308.782C632.118 316.398 650.795 346.168 652.87 346.168C654.945 346.168 684.69 330.245 683.307 327.475C681.923 324.706 666.705 300.474 666.705 300.474L661.863 274.858C661.863 274.858 619.666 273.473 614.132 282.473Z" fill="#2F2E41"/>
<path d="M659.096 221.548L665.321 261.703L676.389 290.089C676.389 290.089 692.991 307.397 683.307 308.782C673.622 310.167 668.088 290.089 668.088 290.089L659.096 273.473V221.548Z" fill="#FFB9B9"/>
<path opacity="0.1" d="M659.096 221.548L665.321 261.703L676.389 290.089C676.389 290.089 692.991 307.397 683.307 308.782C673.622 310.167 668.088 290.089 668.088 290.089L659.096 273.473V221.548Z" fill="black"/>
<path d="M635.922 176.892C635.922 176.892 635.922 191.431 631.08 192.816C626.238 194.2 650.449 212.894 650.449 212.894C650.449 212.894 647.682 188.662 657.366 182.431L635.922 176.892Z" fill="#FFB9B9"/>
<path opacity="0.1" d="M635.922 176.892C635.922 176.892 635.922 191.431 631.08 192.816C626.238 194.2 650.449 212.894 650.449 212.894C650.449 212.894 647.682 188.662 657.366 182.431L635.922 176.892Z" fill="black"/>
<path d="M646.99 188.662C655.777 188.662 662.9 181.532 662.9 172.738C662.9 163.944 655.777 156.814 646.99 156.814C638.203 156.814 631.08 163.944 631.08 172.738C631.08 181.532 638.203 188.662 646.99 188.662Z" fill="#FFB9B9"/>
<path d="M647.682 205.97C647.682 205.97 633.155 187.969 631.08 188.662C629.005 189.354 613.786 204.585 612.403 209.432C611.019 214.278 608.252 248.895 610.328 255.818C612.403 262.742 612.403 280.743 611.711 282.127C611.019 283.512 606.869 286.974 611.019 286.974C615.17 286.974 629.696 276.589 639.381 278.666C649.065 280.743 662.208 277.973 662.9 276.589C663.592 275.204 662.208 239.202 662.9 236.433C663.592 233.664 661.516 219.817 660.825 217.048C660.133 214.278 660.133 203.201 653.215 200.431L650.266 200.14L650.101 206.988L647.682 205.97Z" fill="#008AFF"/>
<path d="M617.245 241.972C617.245 241.972 618.629 263.434 629.005 272.434C639.381 281.435 661.517 296.666 662.9 299.436C664.284 302.205 677.427 316.744 680.194 310.513C680.997 308.571 681.19 306.429 680.748 304.374C680.347 302.331 679.532 300.392 678.353 298.676C677.175 296.96 675.659 295.504 673.898 294.396L667.742 290.435L637.306 258.588L635.922 241.972H617.245Z" fill="#FFB9B9"/>
<path d="M657.02 381.477C657.02 381.477 649.065 379.747 646.298 384.593C643.531 389.439 649.065 402.594 649.065 402.594C649.065 402.594 664.975 435.826 667.742 431.672C670.509 427.518 665.667 412.286 665.667 412.286C665.667 412.286 672.584 397.055 669.817 396.363C667.05 395.67 657.02 389.786 657.02 381.477Z" fill="#2F2E41"/>
<path d="M705.788 421.287C705.788 421.287 701.638 419.21 700.946 421.287C700.254 423.364 696.104 433.749 700.946 435.134C705.788 436.518 753.518 437.903 752.135 435.134C750.751 432.364 743.142 428.903 738.3 427.518C733.458 426.133 721.007 415.748 721.007 415.748C721.007 415.748 714.089 424.749 705.788 421.287Z" fill="#2F2E41"/>
<path d="M663.018 160.1C662.719 159.095 662.061 158.236 661.17 157.686C661.216 156.61 661.084 155.533 660.779 154.5C659.763 151.492 657.355 151.664 655.083 150.335C654.097 149.758 654.158 149.248 653.645 148.3C652.972 147.058 651.965 146.029 650.737 145.331C649.28 144.402 647.741 143.445 646.017 143.327C642.392 143.08 639.614 146.491 636.15 147.586C634.623 148.069 632.983 148.089 631.448 148.545C629.913 149.001 628.382 150.091 628.153 151.677C628.048 152.409 628.234 153.16 628.127 153.892C627.914 155.347 626.639 156.366 625.785 157.562C623.897 160.209 624.113 163.947 625.623 166.826C625.941 167.422 626.305 167.992 626.711 168.531C626.837 169.892 627.228 171.215 627.861 172.426C629.371 175.305 631.969 177.457 634.682 179.244C634.46 178.289 634.325 177.316 634.28 176.337C634.242 176.011 634.284 175.68 634.403 175.374C634.706 174.741 635.504 174.573 636.113 174.227C637.374 173.509 637.869 171.922 637.905 170.471C637.942 169.019 637.635 167.565 637.787 166.122C637.792 165.79 637.868 165.463 638.008 165.161C638.148 164.86 638.349 164.592 638.599 164.374C639.065 164.108 639.597 163.981 640.132 164.008C642.716 163.902 645.416 163.855 647.695 162.632C648.43 162.143 649.22 161.743 650.049 161.44C651.986 160.935 653.966 162.293 655.082 163.956C656.198 165.619 656.755 167.599 657.785 169.317C658.815 171.035 660.594 172.567 662.586 172.363C662.698 172.363 662.809 172.34 662.911 172.294C663.014 172.249 663.106 172.182 663.181 172.098C663.266 171.944 663.305 171.767 663.29 171.591L663.401 163.972C663.494 162.669 663.364 161.36 663.018 160.1Z" fill="#2F2E41"/>
<path d="M623.471 206.662C623.471 206.662 638.689 213.586 637.998 228.125C637.306 242.664 642.148 244.049 630.389 245.433C618.629 246.818 615.862 245.433 615.17 246.818C614.478 248.203 610.328 214.971 613.095 211.509C615.862 208.047 623.471 206.662 623.471 206.662Z" fill="#008AFF"/>
<path d="M317.375 89.3114C329.6 89.3114 339.511 79.3924 339.511 67.1567C339.511 54.9209 329.6 45.0019 317.375 45.0019C305.15 45.0019 295.239 54.9209 295.239 67.1567C295.239 79.3924 305.15 89.3114 317.375 89.3114Z" fill="#2F2E41"/>
<path d="M332.247 309.821L319.796 343.745C319.796 343.745 309.42 352.053 315.646 354.823C321.871 357.592 334.323 352.053 334.323 352.053L344.007 327.129L342.623 309.821H332.247Z" fill="#2F2E41"/>
<path opacity="0.1" d="M332.247 309.821L319.796 343.745C319.796 343.745 309.42 352.053 315.646 354.823C321.871 357.592 334.323 352.053 334.323 352.053L344.007 327.129L342.623 309.821H332.247Z" fill="black"/>
<path d="M333.285 108.697L343.661 110.082C343.661 110.082 348.504 148.16 346.428 150.929C344.353 153.699 333.977 164.776 329.827 162.007C325.676 159.237 333.285 108.697 333.285 108.697Z" fill="#575A89"/>
<path d="M234.021 178.277C234.021 178.277 219.494 184.508 216.727 185.2C213.96 185.892 209.81 192.816 214.652 194.2C219.494 195.585 238.171 181.738 238.171 181.738L234.021 178.277Z" fill="#A0616A"/>
<path d="M337.09 323.667L344.699 352.053C344.699 352.053 345.391 362.438 348.849 363.131C352.308 363.823 362.684 359.669 362.684 358.284C362.684 356.9 358.534 345.822 358.534 345.822C358.534 345.822 358.534 337.514 354.383 334.052C350.233 330.591 346.494 318.994 346.494 318.994L337.09 323.667Z" fill="#2F2E41"/>
<path d="M346.774 258.588C348.172 261.849 347.999 285.506 346.47 301.25C345.73 308.9 344.671 314.681 343.315 315.359L333.403 312.881L329.481 311.898L329.377 303.285L328.789 255.818L317.029 206.662V194.2L346.774 196.97L351.492 204.385L351.616 204.585C351.616 204.585 344.699 253.741 346.774 258.588Z" fill="#2F2E41"/>
<path opacity="0.1" d="M340.549 273.819C342.029 276.042 344.498 289.348 346.47 301.25C345.73 308.9 344.671 314.681 343.315 315.359L333.403 312.881C333.251 312.562 333.098 312.23 332.939 311.898C331.673 309.239 330.484 306.304 329.377 303.285L328.789 255.818L317.029 206.662V194.2L346.774 196.97L351.492 204.385L323.947 202.508L330.172 229.51L337.782 257.895C337.782 257.895 337.782 269.665 340.549 273.819Z" fill="black"/>
<path d="M291.435 166.507C291.435 166.507 281.751 187.969 295.585 217.74C304.146 236.266 311.765 255.214 318.413 274.511C318.413 274.511 323.255 297.359 330.173 311.898C337.09 326.437 335.706 327.129 335.706 327.129L346.774 320.898C346.774 320.898 340.549 277.973 337.782 273.819C335.015 269.665 335.015 257.895 335.015 257.895L327.406 229.51L321.18 202.508L351.617 204.585C351.617 204.585 351.617 165.122 337.782 157.507L291.435 166.507Z" fill="#2F2E41"/>
<path d="M302.848 77.5417C302.848 77.5417 302.848 88.6191 299.39 89.3115C295.931 90.0038 289.013 90.0038 286.938 93.4655C284.863 96.9272 302.848 142.621 302.848 142.621L321.525 130.852L327.751 99.6965C327.751 99.6965 318.758 94.1578 318.758 91.3885V78.9264L302.848 77.5417Z" fill="#A0616A"/>
<path opacity="0.1" d="M302.848 77.5417C302.848 77.5417 302.848 88.6191 299.39 89.3115C295.931 90.0038 289.013 90.0038 286.938 93.4655C284.863 96.9272 302.848 142.621 302.848 142.621L321.525 130.852L327.751 99.6965C327.751 99.6965 318.758 94.1578 318.758 91.3885V78.9264L302.848 77.5417Z" fill="black"/>
<path d="M313.571 89.6576C322.739 89.6576 330.172 82.2183 330.172 73.0415C330.172 63.8647 322.739 56.4254 313.571 56.4254C304.402 56.4254 296.969 63.8647 296.969 73.0415C296.969 82.2183 304.402 89.6576 313.571 89.6576Z" fill="#A0616A"/>
<path d="M304.924 128.775C304.924 128.775 298.698 89.3115 297.315 89.3115C295.931 89.3115 276.562 93.4655 275.179 94.1578C273.795 94.8502 268.953 101.081 268.953 101.081L278.638 128.775C278.638 128.775 282.788 148.16 285.555 151.622C288.322 155.083 293.856 164.776 291.089 166.161C288.322 167.546 285.555 169.623 288.322 169.623C291.089 169.623 313.916 165.469 315.3 167.546C316.683 169.623 339.511 159.93 339.511 159.237C339.511 158.545 336.744 126.005 336.744 126.005L343.661 110.082L322.909 95.5425L304.924 128.775Z" fill="#575A89"/>
<path d="M275.871 97.6195L268.954 101.081C268.954 101.081 249.585 145.391 248.201 146.083C246.818 146.775 239.901 159.93 239.209 162.699C238.517 165.468 237.134 174.469 235.058 175.854C233.945 176.61 232.79 177.304 231.6 177.931C231.6 177.931 235.75 184.854 237.825 184.854C239.901 184.854 246.818 175.161 246.818 175.161C246.818 175.161 262.036 184.854 266.187 177.238C270.337 169.623 280.713 121.159 280.713 121.159L275.871 97.6195Z" fill="#575A89"/>
<path d="M330.172 118.736C330.172 118.736 320.488 95.1963 314.954 97.9656C309.42 100.735 319.104 117.351 325.33 120.12L330.172 118.736Z" fill="#A0616A"/>
<path opacity="0.1" d="M320.488 119.428L330.193 117.232L332.248 127.736C332.248 127.736 341.24 143.66 339.165 150.583C337.09 157.507 324.638 168.584 320.488 162.353C316.337 156.122 312.879 146.429 315.646 140.891C318.413 135.352 322.563 122.197 320.488 119.428Z" fill="black"/>
<path d="M322.563 118.043L332.269 115.847L334.323 126.351C334.323 126.351 343.315 142.275 341.24 149.199C339.165 156.122 326.714 167.199 322.563 160.968C318.413 154.737 314.954 145.045 317.721 139.506C320.488 133.967 324.638 120.813 322.563 118.043Z" fill="#575A89"/>
<path d="M333.101 69.7054C334.965 65.7234 329.744 59.3395 321.441 55.4465C313.138 51.5536 304.897 51.6257 303.033 55.6076C301.169 59.5896 306.389 65.9735 314.692 69.8664C322.995 73.7594 331.237 73.6873 333.101 69.7054Z" fill="#2F2E41"/>
<path d="M330.518 58.1563C335.867 58.1563 340.203 53.8167 340.203 48.4636C340.203 43.1104 335.867 38.7709 330.518 38.7709C325.17 38.7709 320.834 43.1104 320.834 48.4636C320.834 53.8167 325.17 58.1563 330.518 58.1563Z" fill="#2F2E41"/>
<path d="M321.526 45.0019C321.526 42.6113 322.409 40.3051 324.005 38.5265C325.601 36.748 327.798 35.6225 330.172 35.3664C328.82 35.2186 327.452 35.3576 326.156 35.7745C324.861 36.1913 323.668 36.8765 322.655 37.7856C321.643 38.6947 320.832 39.8071 320.278 41.0505C319.723 42.2938 319.437 43.6402 319.437 45.0019C319.437 46.3635 319.723 47.7099 320.278 48.9532C320.832 50.1966 321.643 51.3091 322.655 52.2181C323.668 53.1272 324.861 53.8124 326.156 54.2293C327.452 54.6461 328.82 54.7851 330.172 54.6373C327.798 54.3812 325.601 53.2557 324.005 51.4772C322.409 49.6986 321.526 47.3925 321.526 45.0019Z" fill="#2F2E41"/>
<path d="M286.939 191.777H44.8291V360.015H286.939V191.777Z" fill="#3F3D56"/>
<path d="M96.0184 208.393H64.1982V240.241H96.0184V208.393Z" fill="#F2F2F2"/>
<path d="M96.0184 260.319H64.1982V292.166H96.0184V260.319Z" fill="#008AFF"/>
<path d="M96.0184 312.244H64.1982V344.091H96.0184V312.244Z" fill="#F2F2F2"/>
<path d="M262.728 218.432H111.236V221.202H262.728V218.432Z" fill="#F2F2F2"/>
<path d="M158.275 227.433H111.236V230.202H158.275V227.433Z" fill="#F2F2F2"/>
<path d="M262.728 270.358H111.236V273.127H262.728V270.358Z" fill="#F2F2F2"/>
<path d="M158.275 279.358H111.236V282.127H158.275V279.358Z" fill="#F2F2F2"/>
<path d="M262.728 322.283H111.236V325.052H262.728V322.283Z" fill="#F2F2F2"/>
<path d="M158.275 331.283H111.236V334.052H158.275V331.283Z" fill="#F2F2F2"/>
<path d="M684.69 463.127C684.69 477.22 676.32 482.141 665.993 482.141C665.754 482.141 665.515 482.137 665.278 482.132C664.799 482.122 664.324 482.099 663.856 482.067C654.536 481.407 647.297 476.233 647.297 463.127C647.297 449.565 664.612 432.451 665.916 431.182L665.918 431.18C665.968 431.13 665.993 431.106 665.993 431.106C665.993 431.106 684.69 449.035 684.69 463.127Z" fill="#008AFF"/>
<path d="M665.313 479.984L672.151 470.422L665.295 481.035L665.278 482.132C664.8 482.122 664.325 482.099 663.857 482.067L664.593 467.968L664.588 467.858L664.6 467.839L664.671 466.506L657.798 455.867L664.691 465.507L664.709 465.789L665.264 455.137L659.381 444.144L665.337 453.268L665.917 431.182L665.918 431.106V431.18L665.822 448.596L671.68 441.691L665.798 450.096L665.643 459.634L671.113 450.48L665.621 461.038L665.535 466.34L673.473 453.599L665.504 468.19L665.313 479.984Z" fill="#3F3D56"/>
<path d="M78.0327 366.892C78.0327 380.985 69.6627 385.906 59.3362 385.906C59.097 385.906 58.8578 385.902 58.6203 385.897C58.1419 385.887 57.667 385.865 57.199 385.832C47.8791 385.172 40.6396 379.998 40.6396 366.892C40.6396 353.331 57.9544 336.216 59.2588 334.947L59.2605 334.945C59.3104 334.895 59.3362 334.871 59.3362 334.871C59.3362 334.871 78.0327 352.8 78.0327 366.892Z" fill="#008AFF"/>
<path d="M58.6544 383.749L65.4929 374.187L58.6372 384.8L58.62 385.897C58.1416 385.887 57.6666 385.864 57.1986 385.832L57.9351 371.733L57.9299 371.623L57.942 371.604L58.0125 370.271L51.1396 359.632L58.0332 369.272L58.0504 369.554L58.6062 358.902L52.7228 347.909L58.6785 357.033L59.2584 334.947L59.2601 334.871V334.945L59.1637 352.361L65.0214 345.456L59.1397 353.861L58.9848 363.399L64.4552 354.245L58.9624 364.803L58.8764 370.106L66.8145 357.364L58.8454 371.955L58.6544 383.749Z" fill="#3F3D56"/>
</g>
<defs>
<clipPath id="clip0">
<rect width="776" height="484" fill="white"/>
</clipPath>
</defs>
</svg>
