<svg width="750" height="608" viewBox="0 0 750 608" fill="none" xmlns="http://www.w3.org/2000/svg">
<g clip-path="url(#clip0)">
<path d="M505.301 558.36C470.392 558.453 435.518 556.17 400.92 551.525C399.791 551.381 398.646 551.219 397.509 551.05C389.016 549.843 380.519 548.463 372.259 546.949C335.088 540.155 300.034 530.232 268.073 517.454C161.713 474.933 94.8405 483.982 57.4709 499.061C17.0288 515.38 1.48263 542.079 1.33025 542.347L0 541.593C0.154233 541.321 15.9009 514.224 56.7848 497.689C80.7557 487.995 108.564 483.758 139.444 485.093C177.99 486.761 221.458 497.171 268.641 516.034C300.508 528.774 335.463 538.669 372.535 545.445C380.775 546.955 389.252 548.333 397.729 549.537C398.861 549.706 399.996 549.865 401.122 550.009C494.906 562.903 585.379 555.127 644.765 546.335C693.714 539.088 725.215 530.615 725.528 530.53L725.928 532.005C725.615 532.09 694.035 540.586 644.989 547.847C598.743 554.731 552.057 558.245 505.301 558.36Z" fill="#3F3D56"/>
<path d="M505.405 119.611C478.441 119.611 452.191 118.35 426.865 115.829C368.668 110.036 315.243 97.5375 268.073 78.6802C161.713 36.1589 94.8405 45.2079 57.4709 60.2876C17.0288 76.6061 1.48263 103.306 1.33025 103.573L0 102.819C0.154233 102.547 15.9009 75.4505 56.7848 58.9159C80.7561 49.2212 108.564 44.9825 139.444 46.3195C177.99 47.9876 221.458 58.3975 268.641 77.2604C375.168 119.848 493.707 121.522 574.391 115.431C661.842 108.827 724.901 91.9264 725.528 91.7566L725.928 93.2317C725.301 93.4023 662.128 110.336 574.539 116.953C551.087 118.725 527.995 119.611 505.405 119.611Z" fill="#3F3D56"/>
<path d="M501.444 7.39154C501.444 7.39154 471.373 -3.34204 452.042 39.5923C432.711 82.5266 402.641 129.754 402.641 129.754L419.824 134.048C419.824 134.048 424.12 103.994 434.859 99.7003L430.563 138.341C430.563 138.341 559.437 183.422 617.43 134.048L615.282 119.021C615.282 119.021 623.874 121.167 623.874 134.048L630.317 127.608C630.317 127.608 623.874 114.727 604.543 97.5536C591.855 86.2815 587.494 64.8365 585.996 51.4287C584.874 40.2331 580.392 29.6379 573.139 21.0327C560.292 6.15254 536.884 -9.66293 501.444 7.39154Z" fill="#2F2E41"/>
<path d="M683.951 250.34C683.951 250.34 740.538 298.579 748.859 326.856C757.181 355.134 717.237 358.461 717.237 358.461L630.694 366.778C630.694 366.778 629.029 406.699 614.051 411.689C599.072 416.679 611.01 345.673 611.01 345.673L695.601 321.866L657.323 281.945L683.951 250.34Z" fill="#FBBEBE"/>
<path d="M419.327 300.242L412.67 388.402L376.055 538.107C376.055 538.107 342.769 606.306 371.062 607.969C399.355 609.633 397.691 543.097 397.691 543.097L450.949 401.709L455.942 305.232L419.327 300.242Z" fill="#FBBEBE"/>
<path d="M512.528 145.547C542.861 145.547 567.451 120.971 567.451 90.6548C567.451 60.3389 542.861 35.7629 512.528 35.7629C482.196 35.7629 457.606 60.3389 457.606 90.6548C457.606 120.971 482.196 145.547 512.528 145.547Z" fill="#FBBEBE"/>
<path d="M487.564 117.269C487.564 117.269 507.536 188.795 475.914 207.092C444.292 225.389 555.8 238.697 585.758 183.805C585.758 183.805 532.5 165.507 547.479 117.269H487.564Z" fill="#FBBEBE"/>
<path d="M449.284 215.409L439.298 212.082C439.298 212.082 419.327 220.399 419.327 235.37C419.327 250.34 415.998 310.222 415.998 310.222L460.934 315.213L449.284 215.409Z" fill="#008AFF"/>
<path d="M644.877 547.091C583.438 556.187 493.891 563.533 401.025 550.768C401.018 549.85 401.018 548.956 401.018 548.085C401.018 542.894 401.216 537.762 401.614 532.689C406.371 470.221 438.571 418.142 451.03 400.094C451.657 399.177 452.238 398.351 452.759 397.617C454.77 394.797 455.94 393.306 455.94 393.306C455.94 393.306 552.47 391.731 602.398 411.69C604.806 412.7 607.009 414.141 608.899 415.94C627.516 433.109 638.453 488.85 644.877 547.091Z" fill="#2F2E41"/>
<path d="M609.058 192.122C609.058 192.122 630.694 180.478 652.33 205.429L695.602 255.33L662.316 291.925L599.072 253.667L609.058 192.122Z" fill="#008AFF"/>
<path d="M453.181 91.0029C472.623 76.9395 488.362 60.7415 498.773 41.4731C498.773 41.4731 534.454 81.0969 556.259 83.0781C578.064 85.0593 558.241 35.5295 558.241 35.5295L518.596 25.6235L480.932 29.5859L451.198 49.3978L453.181 91.0029Z" fill="#2F2E41"/>
<path d="M577.436 180.478C577.436 180.478 554.145 217.283 484.24 199.712L444.571 210.631L439.299 212.082C439.299 212.082 444.292 311.886 457.606 330.183C470.921 348.48 467.592 358.461 464.263 360.124C460.935 361.787 452.613 358.461 457.606 366.778C462.599 375.094 469.256 370.104 462.599 375.094C455.942 380.085 452.613 398.382 452.613 398.382L609.058 418.343C609.058 418.343 604.065 353.47 617.379 320.203C630.694 286.935 634.022 273.628 634.022 273.628L624.037 190.458L577.436 180.478Z" fill="#008AFF"/>
<path d="M252.295 147.914H38.1416V415.459H252.295V147.914Z" fill="#E6E6E6"/>
<path d="M98.9467 170.464H53.0566V201.041H98.9467V170.464Z" fill="white"/>
<path d="M230.88 230.089H53.4385V240.79H230.88V230.089Z" fill="white"/>
<path d="M230.88 258.372H53.4385V269.074H230.88V258.372Z" fill="white"/>
<path d="M230.88 286.655H53.4385V297.357H230.88V286.655Z" fill="white"/>
<path d="M230.88 314.938H53.4385V325.64H230.88V314.938Z" fill="white"/>
<path d="M230.88 343.222H53.4385V353.924H230.88V343.222Z" fill="white"/>
<path d="M294.361 415.077C294.352 425.173 290.697 434.927 284.069 442.546C277.44 450.165 268.284 455.137 258.281 456.55C248.279 457.962 238.102 455.719 229.621 450.233C221.141 444.747 214.926 436.387 212.118 426.689C209.311 416.99 210.1 406.605 214.339 397.441C218.579 388.277 225.986 380.95 235.198 376.806C244.409 372.662 254.808 371.98 264.483 374.885C274.157 377.79 282.458 384.087 287.86 392.618C292.108 399.34 294.363 407.127 294.361 415.077Z" fill="#008AFF"/>
<path d="M287.86 392.618L246.452 433.996C243.85 429.969 229.351 411.255 229.351 411.255C231.209 409.378 233.192 407.628 235.286 406.018L247.309 422.041L283.011 386.358C284.822 388.287 286.445 390.383 287.86 392.618Z" fill="white"/>
</g>
<defs>
<clipPath id="clip0">
<rect width="750" height="608" fill="white"/>
</clipPath>
</defs>
</svg>
