<svg width="66" height="72" viewBox="0 0 66 72" fill="none" xmlns="http://www.w3.org/2000/svg">
<path d="M59.6915 15.876L51.4443 6.879C51.1893 6.59988 50.8863 6.37851 50.5526 6.22766C50.2189 6.0768 49.8612 5.99943 49.5 6H16.5C16.1388 5.9996 15.7811 6.07704 15.4475 6.22789C15.1138 6.37873 14.8108 6.60001 14.5558 6.879L6.3085 15.876C6.05181 16.1542 5.8482 16.4852 5.70943 16.8497C5.57065 17.2143 5.49948 17.6053 5.5 18V57C5.5 60.309 7.96675 63 11 63H55C58.0333 63 60.5 60.309 60.5 57V18C60.5008 17.6052 60.4298 17.2142 60.291 16.8496C60.1522 16.4849 59.9484 16.154 59.6915 15.876ZM17.6385 12H48.3615L51.1115 15H14.8885L17.6385 12ZM33 54L19.25 39H27.5V30H38.5V39H46.75L33 54Z" fill="#5EB805"/>
</svg>
