<svg width="391" height="257" viewBox="0 0 391 257" fill="none" xmlns="http://www.w3.org/2000/svg">
<g clip-path="url(#clip0)">
<path d="M80.9561 111.394C61.1835 111.486 45.0893 111.778 45.0893 111.778C45.0893 111.778 64.2197 86.3974 80.8844 95.8009C97.549 105.204 116.692 111.448 116.692 111.448C116.692 111.448 100.729 111.303 80.9561 111.394Z" fill="#F2F2F2"/>
<path d="M302.662 118.936C304.95 118.936 306.804 117.079 306.804 114.788C306.804 112.497 304.95 110.639 302.662 110.639C300.375 110.639 298.52 112.497 298.52 114.788C298.52 117.079 300.375 118.936 302.662 118.936Z" fill="#FF6584"/>
<path d="M303.31 144.023L272.341 179.644L273.296 180.478L304.266 144.857L303.31 144.023Z" fill="#3F3D56"/>
<path d="M303.789 151.12C307.472 151.12 310.457 148.129 310.457 144.44C310.457 140.751 307.472 137.761 303.789 137.761C300.105 137.761 297.12 140.751 297.12 144.44C297.12 148.129 300.105 151.12 303.789 151.12Z" fill="#3F3D56"/>
<path d="M284.701 166.394C284.701 166.394 297.439 150.29 281.147 139.243Z" fill="#3F3D56"/>
<path d="M76.8467 194.671C99.7867 237.283 148.474 255.575 148.474 255.575C148.474 255.575 159.967 204.78 137.027 162.169C114.087 119.558 65.4005 101.266 65.4005 101.266C65.4005 101.266 53.9067 152.06 76.8467 194.671Z" fill="#3F3D56"/>
<path d="M92.6142 180.653C134.03 205.61 149.981 255.182 149.981 255.182C149.981 255.182 98.7828 264.29 57.3667 239.333C15.9506 214.376 0 164.804 0 164.804C0 164.804 51.1981 155.695 92.6142 180.653Z" fill="#038DFE"/>
<path d="M257.401 181.005C215.766 205.595 199.378 255.024 199.378 255.024C199.378 255.024 250.494 264.585 292.129 239.996C333.764 215.406 350.152 165.978 350.152 165.978C350.152 165.978 299.036 156.416 257.401 181.005Z" fill="#3F3D56"/>
<path d="M271.99 196.251C248.675 238.657 199.828 256.517 199.828 256.517C199.828 256.517 188.783 205.623 212.099 163.216C235.414 120.81 284.261 102.95 284.261 102.95C284.261 102.95 295.305 153.844 271.99 196.251Z" fill="#038DFE"/>
<path d="M187.378 79.5334C184.971 77.3533 183.47 74.3471 183.173 71.1107C182.875 67.8742 183.802 64.6439 185.771 62.0601C185.51 62.3047 185.255 62.5588 185.012 62.8288C183.872 64.0914 182.992 65.5664 182.421 67.1697C181.85 68.773 181.601 70.4732 181.686 72.1732C181.859 75.6064 183.386 78.8303 185.932 81.1358C188.477 83.4413 191.833 84.6394 195.261 84.4666C196.958 84.381 198.622 83.9615 200.157 83.2319C201.693 82.5023 203.069 81.4769 204.209 80.2144C204.453 79.9443 204.68 79.665 204.897 79.3808C202.528 81.6018 199.412 82.8502 196.167 82.8785C192.922 82.9068 189.785 81.7129 187.378 79.5334V79.5334Z" fill="#2F2E41"/>
<path d="M175.657 88.7327C190.376 88.7327 202.308 76.7813 202.308 62.0384C202.308 47.2956 190.376 35.3442 175.657 35.3442C160.937 35.3442 149.005 47.2956 149.005 62.0384C149.005 76.7813 160.937 88.7327 175.657 88.7327Z" fill="#2F2E41"/>
<path d="M168.336 96.3376L169.125 94.2808L154.751 106.463L137.376 116.272C137.376 116.272 128.53 82.0987 127.899 81.4658C127.267 80.833 115.894 56.7851 110.839 68.1762C105.785 79.5673 120.633 86.2121 120.633 86.2121C120.633 86.2121 121.106 127.821 136.27 127.505C151.434 127.189 170.231 113.424 170.547 112.159C170.863 110.893 168.336 96.3376 168.336 96.3376Z" fill="#FFB8B8"/>
<path d="M172.442 89.3763C181.166 89.3763 188.238 82.293 188.238 73.5553C188.238 64.8176 181.166 57.7343 172.442 57.7343C163.719 57.7343 156.647 64.8176 156.647 73.5553C156.647 82.293 163.719 89.3763 172.442 89.3763Z" fill="#FFB8B8"/>
<path d="M175.602 84.9465C175.602 84.9465 179.708 90.3256 178.445 90.9585C177.181 91.5913 169.915 91.9077 165.492 97.2869C161.07 102.666 170.863 116.272 170.863 116.272L208.141 91.2749L192.977 86.2122C192.977 86.2122 182.552 80.5166 182.868 74.5046L175.602 84.9465Z" fill="#FFB8B8"/>
<path d="M225.919 257H183.828C181.444 239.539 180.342 223.538 180.342 223.538C180.342 223.538 179.726 239.634 178.09 257H124.015C131.68 205.577 168.019 149.814 168.019 149.814C168.019 149.814 168.335 142.218 169.284 140.951C170.232 139.689 163.913 139.372 161.067 129.88C159.333 124.086 160.892 120.294 162.375 118.223C162.884 117.476 163.51 116.817 164.229 116.271C164.229 116.271 164.862 109.629 164.229 108.679C164.148 108.555 164.772 108.119 165.925 107.455C166.887 106.899 168.216 106.184 169.805 105.363C178.91 100.634 196.535 92.2672 202.572 89.417C203.897 88.7879 204.666 88.4285 204.666 88.4285L215.408 92.2244C223.936 95.0703 223.936 113.109 223.936 113.109L223.453 113.845L210.562 133.402L203.085 144.752C204.982 146.014 201.192 153.927 201.192 153.927C201.192 153.927 206.593 161.699 210.985 173.562C213.469 180.164 215.163 187.038 216.031 194.039C216.585 198.577 216.694 203.158 216.356 207.717C215.185 222.96 220.39 241.487 225.919 257Z" fill="#2F2E41"/>
<path d="M215.559 94.0894C215.209 93.8922 214.82 93.7741 214.419 93.7431C214.019 93.7121 213.616 93.769 213.24 93.91C212.864 94.0509 212.523 94.2724 212.241 94.559C211.959 94.8456 211.743 95.1904 211.608 95.5693C210.657 98.1892 209.693 103.651 210.036 115.006C210.668 135.89 210.984 150.129 210.984 150.129V181.771C210.984 181.771 197.084 212.147 204.666 212.147C212.248 212.147 217.618 188.099 217.618 188.099C217.618 188.099 224.568 151.711 222.357 145.383C222.357 145.383 228.592 101.664 215.559 94.0894Z" fill="#FFB8B8"/>
<path d="M170.588 68.775C178.076 68.775 184.145 64.63 184.145 59.5169C184.145 54.4038 178.076 50.2588 170.588 50.2588C163.101 50.2588 157.032 54.4038 157.032 59.5169C157.032 64.63 163.101 68.775 170.588 68.775Z" fill="#2F2E41"/>
<path d="M192.117 52.2549C199.264 52.2549 205.058 46.4519 205.058 39.2935C205.058 32.1351 199.264 26.3322 192.117 26.3322C184.97 26.3322 179.176 32.1351 179.176 39.2935C179.176 46.4519 184.97 52.2549 192.117 52.2549Z" fill="#2F2E41"/>
<path d="M201.36 48.5516C198.115 48.5512 194.989 47.3296 192.601 45.1289C190.213 42.9283 188.738 39.9093 188.468 36.6704C188.439 37.0269 188.42 37.3864 188.42 37.7505C188.42 41.1881 189.783 44.4849 192.21 46.9156C194.637 49.3463 197.928 50.7119 201.36 50.7119C204.792 50.7119 208.084 49.3463 210.511 46.9156C212.938 44.4849 214.301 41.1881 214.301 37.7505C214.301 37.3864 214.282 37.0269 214.253 36.6704C213.983 39.9093 212.507 42.9283 210.12 45.1289C207.732 47.3296 204.605 48.5512 201.36 48.5516V48.5516Z" fill="#2F2E41"/>
<path d="M187.877 70.7966C188.471 70.6545 188.69 69.437 188.366 68.0772C188.042 66.7174 187.297 65.7303 186.703 65.8724C186.109 66.0144 185.891 67.232 186.215 68.5917C186.539 69.9515 187.284 70.9387 187.877 70.7966Z" fill="#FFB8B8"/>
<path d="M187.764 70.5494C188.113 70.5494 188.396 70.266 188.396 69.9165C188.396 69.567 188.113 69.2837 187.764 69.2837C187.415 69.2837 187.132 69.567 187.132 69.9165C187.132 70.266 187.415 70.5494 187.764 70.5494Z" fill="#F2F2F2"/>
<path d="M37.5649 124.12C36.5509 124.12 35.5596 123.819 34.7164 123.254C33.8732 122.69 33.216 121.888 32.828 120.95C32.4399 120.011 32.3384 118.979 32.5362 117.983C32.734 116.986 33.2224 116.071 33.9394 115.353C34.6565 114.635 35.5701 114.146 36.5647 113.948C37.5592 113.75 38.5902 113.851 39.527 114.24C40.4639 114.629 41.2647 115.287 41.8281 116.131C42.3915 116.976 42.6922 117.969 42.6922 118.984C42.6906 120.346 42.15 121.651 41.1888 122.614C40.2275 123.577 38.9243 124.118 37.5649 124.12V124.12ZM37.5649 114.705C36.7199 114.705 35.8938 114.956 35.1911 115.426C34.4885 115.896 33.9409 116.565 33.6175 117.347C33.2941 118.129 33.2095 118.989 33.3743 119.819C33.5392 120.65 33.9461 121.412 34.5437 122.011C35.1412 122.609 35.9025 123.017 36.7314 123.182C37.5602 123.347 38.4193 123.262 39.2 122.938C39.9808 122.614 40.6481 122.066 41.1175 121.362C41.587 120.658 41.8376 119.831 41.8376 118.984C41.8363 117.85 41.3858 116.762 40.5847 115.96C39.7837 115.158 38.6977 114.706 37.5649 114.705V114.705Z" fill="#3F3D56"/>
<path d="M259.532 86.6738H248.423V75.547H259.532V86.6738ZM249.277 85.8179H258.677V76.4029H249.277V85.8179Z" fill="#3F3D56"/>
<path d="M355.264 146.487C335.491 146.578 319.397 146.871 319.397 146.871C319.397 146.871 338.527 121.49 355.192 130.893C371.857 140.297 391 146.54 391 146.54C391 146.54 375.036 146.395 355.264 146.487Z" fill="#F2F2F2"/>
<path d="M294.591 60.8957C274.819 60.9869 258.724 61.2795 258.724 61.2795C258.724 61.2795 277.855 35.8987 294.52 45.3021C311.184 54.7055 330.328 60.949 330.328 60.949C330.328 60.949 314.364 60.8044 294.591 60.8957Z" fill="#F2F2F2"/>
<path d="M107.171 71.8531L61.4502 48.3053C59.9508 47.5331 58.8192 46.1959 58.3042 44.588C57.7892 42.9801 57.9329 41.2331 58.7039 39.7314L69.4751 18.7509C69.6315 18.4462 69.8483 18.1766 70.1121 17.9586C70.376 17.7406 70.6814 17.5787 71.0098 17.4828L107.046 6.95842C108.487 6.53763 110.034 6.68625 111.369 7.37367C112.704 8.06108 113.724 9.23495 114.221 10.6535L126.061 44.4822C126.357 45.3273 126.478 46.2239 126.416 47.1173C126.355 48.0106 126.112 48.8821 125.703 49.6785L115.731 69.1024C115.349 69.846 114.825 70.507 114.188 71.0477C113.551 71.5883 112.815 71.9981 112.02 72.2535C111.225 72.5089 110.387 72.605 109.556 72.5363C108.724 72.4676 107.913 72.2355 107.171 71.8531V71.8531Z" fill="#F2F2F2"/>
<path opacity="0.1" d="M108.987 63.5379L62.8229 43.7978C61.3354 43.0317 62.7302 44.2093 63.495 42.7194L69.2982 19.0953L125.85 48.2216L111.553 65.9278C110.788 67.4177 110.475 64.304 108.987 63.5379Z" fill="black"/>
<path d="M84.3796 8.00719L65.952 43.9011C65.0687 45.6218 65.7452 47.7338 67.463 48.6186L103.3 67.0757C105.017 67.9605 107.126 67.2829 108.009 65.5623L126.437 29.6683C127.32 27.9477 126.644 25.8356 124.926 24.9508L89.0895 6.49373C87.3717 5.60897 85.2629 6.28657 84.3796 8.00719Z" fill="#038DFE"/>
<path opacity="0.1" d="M118.295 45.5268L106.41 68.6779L64.3525 47.0165L76.2378 23.8658L92.0404 44.8767L118.295 45.5268Z" fill="black"/>
<path d="M91.3683 46.1855L71.1204 19.264C70.9952 19.0975 70.8298 18.9655 70.6397 18.8805C70.4497 18.7955 70.2412 18.7603 70.0338 18.778C69.8264 18.7958 69.6269 18.866 69.454 18.9821C69.2811 19.0982 69.1405 19.2564 69.0453 19.4418L57.5234 41.8846C57.2929 42.3336 57.153 42.8236 57.1115 43.3268C57.0701 43.83 57.1281 44.3364 57.2821 44.8171C57.436 45.2979 57.6831 45.7435 58.009 46.1287C58.3349 46.5138 58.7334 46.8309 59.1817 47.0617L109.382 72.9165C109.83 73.1474 110.319 73.2876 110.822 73.3291C111.324 73.3705 111.83 73.3125 112.309 73.1583C112.789 73.0041 113.234 72.7566 113.619 72.4302C114.003 72.1037 114.32 71.7046 114.55 71.2556L125.875 49.1973C125.991 48.971 126.048 48.719 126.04 48.4647C126.033 48.2104 125.961 47.9622 125.831 47.7434C125.701 47.5247 125.518 47.3424 125.299 47.2138C125.08 47.0852 124.832 47.0144 124.578 47.0082L91.3683 46.1855Z" fill="#F2F2F2"/>
<path d="M99.379 16.6831L87.6172 10.6254L86.7619 12.2913L98.5237 18.3491L99.379 16.6831Z" fill="#F2F2F2"/>
<path d="M118.48 34.1945L83.551 16.2047L83.0623 17.1567L117.991 35.1464L118.48 34.1945Z" fill="#F2F2F2"/>
<path d="M116.831 37.4074L81.9016 19.4176L81.4128 20.3696L116.342 38.3593L116.831 37.4074Z" fill="#F2F2F2"/>
<path d="M115.181 40.6203L80.2521 22.6305L79.7633 23.5825L114.692 41.5722L115.181 40.6203Z" fill="#F2F2F2"/>
<path d="M92.2322 8.9511C93.6181 6.25167 92.5607 2.94014 89.8705 1.55458C87.1803 0.16902 83.876 1.23412 82.4901 3.93355C81.1042 6.63297 82.1616 9.94451 84.8518 11.3301C87.5421 12.7156 90.8464 11.6505 92.2322 8.9511Z" fill="white"/>
<path d="M90.2981 0.72157C89.1468 0.128566 87.8457 -0.109151 86.5594 0.0384848C85.2731 0.18612 84.0594 0.712481 83.0718 1.55099C82.0842 2.38951 81.3671 3.50252 81.011 4.74928C80.6549 5.99604 80.676 7.32055 81.0715 8.55533C81.467 9.79011 82.2192 10.8797 83.233 11.6863C84.2467 12.4929 85.4765 12.9803 86.7668 13.0868C88.0571 13.1933 89.35 12.9143 90.482 12.2848C91.6139 11.6554 92.5341 10.7039 93.1262 9.55071C93.9149 8.00334 94.0601 6.20623 93.5302 4.55193C93.0004 2.89763 91.8384 1.52057 90.2981 0.72157V0.72157ZM84.5135 9.04575L83.0641 4.52081L84.3313 4.11364L85.3755 7.37363L92.2453 5.16614L92.6518 6.43534L84.5135 9.04575V9.04575Z" fill="#57B894"/>
</g>
<defs>
<clipPath id="clip0">
<rect width="391" height="257" fill="white"/>
</clipPath>
</defs>
</svg>
