<svg width="309" height="318" viewBox="0 0 309 318" fill="none" xmlns="http://www.w3.org/2000/svg">
<g clip-path="url(#clip0)">
<path d="M253.055 87.6829C253.055 87.6829 247.263 91.0322 249.045 95.7212C249.045 95.7212 255.06 97.5075 257.51 101.973C259.961 106.439 278.896 122.516 278.896 122.516L292.708 115.594C292.708 115.594 287.903 109.165 272.707 104.676C272.707 104.676 263.748 95.0513 260.629 93.265C257.51 91.4787 253.055 87.6829 253.055 87.6829Z" fill="#CBCDDA"/>
<path opacity="0.05" d="M253.055 87.6829C253.055 87.6829 247.263 91.0322 249.045 95.7212C249.045 95.7212 255.06 97.5075 257.51 101.973C259.961 106.439 278.896 122.516 278.896 122.516L292.708 115.594C292.708 115.594 287.903 109.165 272.707 104.676C272.707 104.676 263.748 95.0513 260.629 93.265C257.51 91.4787 253.055 87.6829 253.055 87.6829Z" fill="black"/>
<path opacity="0.1" d="M52.8063 301.426C49.8323 302.163 46.7214 301.303 43.6583 301.266C40.5951 301.23 37.0214 302.52 36.2706 305.497C35.2623 309.495 39.9255 312.51 43.9182 313.506C59.415 317.372 75.8195 312.354 91.6579 314.401C98.3323 315.263 104.823 317.373 111.534 317.877C126.894 319.029 141.902 311.707 157.283 312.532C164.989 312.945 172.479 315.398 180.186 315.792C198.626 316.733 216.817 305.883 234.869 309.771C239.966 310.869 244.752 313.107 249.803 314.403C262.571 317.68 276.014 314.759 288.868 311.837C291.421 311.257 294.498 310.127 294.812 307.523C295.159 304.649 291.867 302.847 289.128 301.929C259.178 291.89 227.113 286.571 195.874 291.211C188.765 292.267 181.676 293.836 174.49 293.733C158.586 293.503 143.971 285.187 128.356 282.145C98.7698 276.382 69.1882 289.829 42.0275 302.925" fill="#038DFE"/>
<path d="M93.8129 216.231H84.7555V292.985C84.7555 292.985 143.217 311.967 200.031 292.985V216.231H93.8129Z" fill="#3F3D56"/>
<path d="M141.57 225.31C172.948 225.31 198.385 221.43 198.385 216.644C198.385 211.858 172.948 207.978 141.57 207.978C110.192 207.978 84.7556 211.858 84.7556 216.644C84.7556 221.43 110.192 225.31 141.57 225.31Z" fill="#3F3D56"/>
<path opacity="0.1" d="M141.57 225.31C172.948 225.31 198.385 221.43 198.385 216.644C198.385 211.858 172.948 207.978 141.57 207.978C110.192 207.978 84.7556 211.858 84.7556 216.644C84.7556 221.43 110.192 225.31 141.57 225.31Z" fill="black"/>
<path d="M207.613 124.528C193.281 177.632 144.189 210.521 144.189 210.521C144.189 210.521 118.335 157.311 132.667 104.206C146.999 51.1022 196.091 18.2134 196.091 18.2134C196.091 18.2134 221.946 71.4236 207.613 124.528Z" fill="#3F3D56"/>
<path d="M77.2281 124.528C91.5605 177.632 140.652 210.521 140.652 210.521C140.652 210.521 166.507 157.311 152.174 104.206C137.842 51.1022 88.75 18.2134 88.75 18.2134C88.75 18.2134 62.8957 71.4236 77.2281 124.528Z" fill="#038DFE"/>
<path d="M98.2886 113.115C137.617 151.489 142.421 210.477 142.421 210.477C142.421 210.477 83.4604 207.251 44.132 168.877C4.80368 130.504 0 71.5149 0 71.5149C0 71.5149 58.9602 74.7416 98.2886 113.115Z" fill="#3F3D56"/>
<path d="M186.553 113.115C147.224 151.489 142.421 210.477 142.421 210.477C142.421 210.477 201.381 207.251 240.709 168.877C280.038 130.504 284.841 71.5149 284.841 71.5149C284.841 71.5149 225.881 74.7416 186.553 113.115Z" fill="#3F3D56"/>
<path d="M142.393 36.3136C152.398 36.3136 160.508 28.1845 160.508 18.1568C160.508 8.12908 152.398 0 142.393 0C132.389 0 124.279 8.12908 124.279 18.1568C124.279 28.1845 132.389 36.3136 142.393 36.3136Z" fill="#038DFE"/>
<path d="M33.9175 146.74C35.202 151.411 39.6644 154.253 39.6644 154.253C39.6644 154.253 42.0444 149.521 40.76 144.85C39.4756 140.178 35.0131 137.336 35.0131 137.336C35.0131 137.336 32.6331 142.068 33.9175 146.74Z" fill="#038DFE"/>
<path d="M57.959 172.757C56.5765 177.4 58.8563 182.181 58.8563 182.181C58.8563 182.181 63.3776 179.434 64.7601 174.791C66.1427 170.148 63.8629 165.366 63.8629 165.366C63.8629 165.366 59.3415 168.113 57.959 172.757Z" fill="#038DFE"/>
<path d="M231.368 202.627C227.975 206.078 227.752 211.373 227.752 211.373C227.752 211.373 233.03 211.072 236.424 207.62C239.817 204.168 240.04 198.874 240.04 198.874C240.04 198.874 234.761 199.175 231.368 202.627Z" fill="#038DFE"/>
<path d="M289.143 278.146C289.143 278.146 289.812 287.971 290.926 289.087C292.039 290.204 280.901 290.874 280.901 290.874L282.46 278.146H289.143Z" fill="#FFB9B9"/>
<path opacity="0.05" d="M289.143 278.146C289.143 278.146 289.812 287.971 290.926 289.087C292.039 290.204 280.901 290.874 280.901 290.874L282.46 278.146H289.143Z" fill="black"/>
<path d="M291.594 285.738C291.594 285.738 290.034 285.738 284.465 288.641C284.465 288.641 280.678 287.971 279.119 282.612C279.119 282.612 274.441 290.65 271.322 291.097C268.203 291.544 262.188 291.99 266.198 297.349C270.208 302.708 293.822 300.252 293.822 300.252C293.822 300.252 294.49 287.301 291.594 285.738Z" fill="#CBCDDA"/>
<path opacity="0.05" d="M291.594 285.738C291.594 285.738 290.034 285.738 284.465 288.641C284.465 288.641 280.678 287.971 279.119 282.612C279.119 282.612 274.441 290.65 271.322 291.097C268.203 291.544 262.188 291.99 266.198 297.349C270.208 302.708 293.822 300.252 293.822 300.252C293.822 300.252 294.49 287.301 291.594 285.738Z" fill="black"/>
<path d="M288.252 293.33L286.693 297.572L276.446 294.67L277.029 290.458L277.17 289.442L277.559 286.631C277.559 286.631 286.247 284.398 286.247 285.515C286.365 286.435 286.555 287.345 286.818 288.234C287.174 289.608 287.622 291.173 287.923 292.202C288.119 292.883 288.252 293.33 288.252 293.33Z" fill="#FFB9B9"/>
<path d="M282.661 235.097C281.959 236.287 281.164 238.52 282.641 241.311C283.078 242.118 283.616 242.866 284.242 243.537C289.143 248.896 290.48 260.953 290.48 260.953V280.379L287.138 280.636L281.792 281.049L273.772 248.003C273.772 248.003 269.094 223.888 271.322 219.645C273.55 215.403 275.554 188.832 275.554 188.832L277.403 186.911L281.792 182.356H294.49C295.506 183.087 296.349 184.032 296.96 185.125C299.092 188.662 301.006 196.017 295.158 209.597C286.025 230.81 283.351 234.159 283.351 234.159C283.087 234.444 282.855 234.759 282.661 235.097V235.097Z" fill="#4C4C78"/>
<path opacity="0.05" d="M282.661 235.097C281.959 236.287 281.164 238.52 282.641 241.311C283.078 242.118 283.616 242.866 284.242 243.537C289.143 248.896 290.48 260.953 290.48 260.953V280.379L287.138 280.636L281.792 281.049L273.772 248.003C273.772 248.003 269.094 223.888 271.322 219.645C273.55 215.403 275.554 188.832 275.554 188.832L277.403 186.911L281.792 182.356H294.49C295.506 183.087 296.349 184.032 296.96 185.125C299.092 188.662 301.006 196.017 295.158 209.597C286.025 230.81 283.351 234.159 283.351 234.159C283.087 234.444 282.855 234.759 282.661 235.097V235.097Z" fill="black"/>
<path opacity="0.1" d="M286.818 288.234L277.17 289.442L277.559 286.631C277.559 286.631 286.247 284.398 286.247 285.515C286.365 286.435 286.555 287.345 286.818 288.234Z" fill="black"/>
<path d="M282.015 206.472C282.015 206.472 282.569 224.049 282.661 235.097C282.681 237.595 282.679 239.761 282.641 241.311C282.654 242.131 282.593 242.951 282.46 243.76C281.792 245.77 283.129 250.236 283.129 250.236C288.698 264.973 287.138 277.923 287.138 277.923V287.748L276.446 289.087C276.446 289.087 278.228 287.748 273.327 274.797C270.511 267.357 269.901 260.067 269.892 255.208C269.866 252.549 269.335 249.919 268.328 247.458C268.019 246.628 267.827 245.759 267.758 244.877C267.312 240.411 265.307 234.829 265.307 234.829C265.307 234.829 259.961 218.976 258.624 207.365C258.006 201.838 258.11 196.254 258.934 190.754C259.131 189.356 259.399 187.97 259.738 186.599C259.738 186.599 281.516 172.862 289.738 182.357C290.529 183.285 291.157 184.343 291.594 185.483C292.046 186.609 292.398 187.773 292.645 188.961C295.205 201.561 282.015 206.472 282.015 206.472Z" fill="#4C4C78"/>
<path d="M281.347 108.672C287.621 108.672 292.708 103.574 292.708 97.2843C292.708 90.9951 287.621 85.8967 281.347 85.8967C275.072 85.8967 269.985 90.9951 269.985 97.2843C269.985 103.574 275.072 108.672 281.347 108.672Z" fill="#FFB9B9"/>
<path d="M275.109 104.43C275.109 104.43 279.787 117.603 275.109 124.525C270.431 131.447 290.034 129.214 290.034 129.214L297.609 120.06C297.609 120.06 288.698 120.06 288.252 104.43C287.807 88.7996 275.109 104.43 275.109 104.43Z" fill="#FFB9B9"/>
<path opacity="0.1" d="M297.609 187.715C295.994 188.275 294.333 188.692 292.645 188.961C289.872 189.39 286.599 189.406 284.688 187.715C283.554 186.713 280.761 186.59 277.404 186.911C270.333 187.59 260.763 190.234 258.934 190.754C259.131 189.356 259.399 187.969 259.738 186.599C259.738 186.599 281.516 172.862 289.738 182.356H294.49C295.506 183.087 296.349 184.032 296.96 185.125C297.37 186.903 297.609 187.715 297.609 187.715Z" fill="black"/>
<path opacity="0.1" d="M288.252 293.33L286.693 297.572L276.446 294.669L277.029 290.458C278.789 294.361 281.792 294.893 281.792 294.893C285.031 293.205 286.913 292.499 287.923 292.202C288.119 292.883 288.252 293.33 288.252 293.33Z" fill="black"/>
<path d="M288.921 292.213C288.921 292.213 287.361 292.213 281.792 295.116C281.792 295.116 278.005 294.446 276.446 289.087C276.446 289.087 271.767 297.125 268.649 297.572C265.53 298.019 259.515 298.465 263.525 303.824C267.535 309.183 291.148 306.727 291.148 306.727C291.148 306.727 291.817 293.776 288.921 292.213Z" fill="#CBCDDA"/>
<path d="M236.069 99.4652C236.069 99.4652 236.504 90.7688 245.623 91.6199C245.878 91.6442 246.123 91.7311 246.337 91.8732C246.551 92.0152 246.726 92.2078 246.848 92.4341C246.969 92.6603 247.034 92.9131 247.034 93.1701C247.035 93.4271 246.973 93.6804 246.853 93.9074L244.983 97.4347L236.069 99.4652Z" fill="#FFB9B9"/>
<path d="M288.698 122.739C288.698 122.739 277.782 120.953 274.886 118.72C274.886 118.72 272.659 122.962 268.649 120.729C264.639 118.496 255.283 118.72 255.283 118.72C255.283 118.72 247.486 114.477 245.926 104.876C245.926 104.876 244.367 99.0705 244.812 97.5075C244.812 97.5075 239.02 91.4788 236.124 99.5171C237.238 105.099 238.129 104.653 237.907 109.118L241.471 118.943C241.471 118.943 241.694 122.292 248.154 126.758C254.614 131.224 261.966 138.146 261.966 138.146C261.966 138.146 258.067 140.267 259.515 149.98C261.285 161.852 258.624 178.784 258.624 178.784V189.725C258.624 189.725 280.901 183.249 284.688 186.599C288.475 189.948 297.609 186.599 297.609 186.599C297.609 186.599 296.495 182.803 294.935 173.648C293.376 164.493 295.158 155.562 295.158 155.562C295.158 155.562 300.95 140.155 303.623 133.903C306.297 127.651 301.618 119.166 296.94 116.04C292.262 112.914 290.52 114.791 290.52 114.791C290.52 114.791 298.722 120.729 288.698 122.739Z" fill="#CBCDDA"/>
<path opacity="0.1" d="M269.059 94.4996C269.056 94.9644 269.134 95.4262 269.29 95.8637C269.55 96.3616 269.905 96.8037 270.335 97.1648C272.003 98.7989 273.467 100.741 274.054 103.003C274.451 104.535 274.43 106.141 274.406 107.724C274.309 114.135 274.041 121.055 270.09 126.098C268.638 127.951 266.772 129.425 265.017 130.993C264.773 131.174 264.587 131.423 264.484 131.709C264.436 132.014 264.495 132.326 264.65 132.593C265.464 134.29 267.181 135.331 268.806 136.275C269.549 136.707 270.332 137.151 271.19 137.178C273.215 137.244 274.554 135.1 276.398 134.256C279.081 133.028 282.093 134.737 284.756 136.008C286.685 136.929 288.709 137.636 290.791 138.118C293.642 138.777 296.866 138.939 299.266 137.262C300.654 136.282 301.602 134.795 301.906 133.121C302.099 132.03 302.069 130.763 302.893 130.024C303.318 129.644 303.897 129.486 304.357 129.148C305.069 128.625 305.408 127.745 305.711 126.913L308.455 119.393C308.81 118.598 308.992 117.738 308.992 116.867C308.86 115.056 307.194 113.742 305.521 113.046C303.848 112.349 301.998 112.006 300.527 110.947C298.039 109.155 297.271 105.81 297.048 102.748C296.895 100.645 296.91 98.533 297.093 96.4325C297.365 93.3174 297.972 90.0005 296.59 87.1973C295.113 84.2035 291.8 82.6749 288.733 81.3707C287.555 80.8698 286.346 80.3615 285.068 80.3049C283.715 80.2451 282.398 80.6956 281.119 81.1402C279.086 81.8467 277.024 82.7615 274.925 83.2406C273.746 83.5098 272.455 83.3084 271.318 83.7358C267.141 85.3062 269.059 91.1287 269.059 94.4996Z" fill="black"/>
<path d="M269.059 94.0528C269.056 94.5176 269.134 94.9793 269.29 95.4169C269.55 95.9148 269.905 96.3569 270.335 96.718C272.003 98.3521 273.467 100.294 274.054 102.557C274.451 104.089 274.43 105.694 274.406 107.277C274.309 113.688 274.041 120.608 270.09 125.651C268.638 127.504 266.772 128.978 265.017 130.547C264.773 130.727 264.587 130.976 264.484 131.262C264.436 131.567 264.495 131.879 264.65 132.146C265.464 133.843 267.181 134.884 268.806 135.828C269.549 136.26 270.332 136.704 271.19 136.732C273.215 136.797 274.554 134.653 276.398 133.809C279.081 132.581 282.093 134.29 284.756 135.561C286.685 136.482 288.709 137.189 290.791 137.671C293.642 138.33 296.866 138.492 299.266 136.815C300.654 135.835 301.602 134.348 301.906 132.674C302.099 131.583 302.069 130.316 302.893 129.578C303.318 129.197 303.897 129.039 304.357 128.702C305.069 128.179 305.408 127.298 305.711 126.467L308.455 118.946C308.81 118.152 308.992 117.291 308.992 116.42C308.86 114.61 307.194 113.295 305.521 112.599C303.848 111.903 301.998 111.559 300.527 110.5C298.039 108.709 297.271 105.363 297.048 102.301C296.895 100.198 296.91 98.0862 297.093 95.9857C297.365 92.8706 297.972 89.5537 296.59 86.7505C295.113 83.7567 291.8 82.2281 288.733 80.9239C287.555 80.423 286.346 79.9147 285.068 79.8582C283.715 79.7983 282.398 80.2488 281.119 80.6934C279.086 81.3999 277.024 82.3147 274.925 82.7938C273.746 83.063 272.455 82.8616 271.318 83.289C267.141 84.8594 269.059 90.6819 269.059 94.0528Z" fill="#B96B6B"/>
<path opacity="0.05" d="M260.077 154.989C260.077 154.989 261.854 154.557 270.765 153.218C279.676 151.878 295.27 155.004 295.27 155.004" fill="black"/>
<path d="M15.2255 191.705C16.5099 196.376 20.9724 199.218 20.9724 199.218C20.9724 199.218 23.3524 194.486 22.068 189.815C20.7836 185.143 16.3211 182.301 16.3211 182.301C16.3211 182.301 13.9411 187.033 15.2255 191.705Z" fill="#038DFE"/>
</g>
<defs>
<clipPath id="clip0">
<rect width="309" height="318" fill="white"/>
</clipPath>
</defs>
</svg>
