<svg width="232" height="232" viewBox="0 0 232 232" fill="none" xmlns="http://www.w3.org/2000/svg">
<g clip-path="url(#clip0)">
<path d="M232 116C232.021 131.703 228.842 147.245 222.658 161.679L222.274 162.565C211.813 186.362 193.675 205.964 170.76 218.236C147.845 230.508 121.477 234.742 95.8716 230.26C95.1749 230.136 94.4794 230.008 93.785 229.876C86.6099 228.485 79.5837 226.413 72.802 223.688C71.7004 223.245 70.6067 222.786 69.5211 222.312C68.7798 221.989 68.0385 221.656 67.304 221.313C47.2131 212.001 30.2029 197.14 18.2783 178.482C6.35374 159.823 0.0117944 138.144 0 116C0 51.9357 51.9357 0 116 0C180.064 0 232 51.9357 232 116Z" fill="#038DFE"/>
<path opacity="0.2" d="M95.8716 230.26C95.1749 230.136 94.4793 230.008 93.7849 229.876C93.3319 216.728 91.7773 189.742 86.4749 161.48C83.5749 146.012 79.5492 130.157 73.9654 115.983C72.0524 111.078 69.8675 106.285 67.4207 101.623C61.7786 90.9673 54.9352 81.9962 46.6368 75.9182L47.8586 74.2502C54.7602 79.3089 60.9629 86.4108 66.4666 95.5558C68.1174 98.2945 69.7029 101.216 71.2233 104.321C72.8535 107.643 74.4082 111.17 75.8873 114.902C76.8311 117.277 77.7429 119.734 78.6226 122.274C82.4526 133.3 85.7084 145.882 88.3899 160.018C88.9837 163.141 89.5488 166.341 90.0853 169.617C94.2414 195.003 95.494 218.475 95.8716 230.26Z" fill="black"/>
<path opacity="0.2" d="M69.5211 222.312C68.7798 221.989 68.0385 221.656 67.304 221.313C66.5868 213.522 65.2689 203.858 62.8597 194.684C61.8045 190.564 60.4498 186.527 58.8065 182.604C56.0575 176.169 52.4986 170.698 47.8964 167.325L49.1181 165.66C53.9366 169.188 57.6534 174.765 60.5259 181.29C63.7623 188.641 65.921 197.197 67.359 205.372C68.4263 211.443 69.099 217.308 69.5211 222.312Z" fill="black"/>
<path opacity="0.2" d="M35.0957 75.8703C40.7988 75.8703 45.422 71.2471 45.422 65.544C45.422 59.841 40.7988 55.2178 35.0957 55.2178C29.3927 55.2178 24.7695 59.841 24.7695 65.544C24.7695 71.2471 29.3927 75.8703 35.0957 75.8703Z" fill="black"/>
<path opacity="0.2" d="M38.4212 164.761C44.1243 164.761 48.7475 160.138 48.7475 154.435C48.7475 148.732 44.1243 144.108 38.4212 144.108C32.7182 144.108 28.095 148.732 28.095 154.435C28.095 160.138 32.7182 164.761 38.4212 164.761Z" fill="black"/>
<path opacity="0.2" d="M76.0913 82.8891C73.9016 95.2432 78.7355 106.43 78.7355 106.43C78.7355 106.43 87.1197 97.5861 89.3094 85.2319C91.4992 72.8778 86.6652 61.6914 86.6652 61.6914C86.6652 61.6914 78.2811 70.5349 76.0913 82.8891Z" fill="black"/>
<path opacity="0.2" d="M41.7729 112.215C53.5565 116.524 65.3974 113.759 65.3974 113.759C65.3974 113.759 58.1333 104.008 46.3497 99.6988C34.5661 95.3899 22.7252 98.1551 22.7252 98.1551C22.7252 98.1551 29.9893 107.906 41.7729 112.215Z" fill="black"/>
<path opacity="0.2" d="M39.7747 190.931C48.0341 193.951 56.3453 191.981 56.3453 191.981C56.3453 191.981 51.2654 185.114 43.0061 182.094C34.7468 179.074 26.4355 181.044 26.4355 181.044C26.4355 181.044 31.5154 187.911 39.7747 190.931Z" fill="black"/>
<path d="M115.762 141.688C140.738 141.688 160.985 121.441 160.985 96.4648C160.985 71.4889 140.738 51.2419 115.762 51.2419C90.7859 51.2419 70.5389 71.4889 70.5389 96.4648C70.5389 121.441 90.7859 141.688 115.762 141.688Z" fill="#D0CDE1"/>
<path d="M98.0967 131.089C98.0967 131.089 103.75 157.94 103.75 160.766C103.75 163.593 130.601 176.312 130.601 176.312L154.625 172.072L163.105 146.634C163.105 146.634 148.972 125.436 148.972 116.957L98.0967 131.089Z" fill="#D0CDE1"/>
<path d="M222.658 161.679L222.274 162.565C211.813 186.361 193.675 205.963 170.76 218.236C147.845 230.508 121.477 234.742 95.8716 230.26C95.1749 230.136 94.4794 230.008 93.785 229.875C86.6098 228.485 79.5837 226.413 72.802 223.688C71.7003 223.245 70.6067 222.786 69.521 222.311C68.7797 221.989 68.0384 221.656 67.304 221.313C60.647 218.229 54.298 214.519 48.3425 210.234L42.9818 194.684L45.995 192.385L52.1931 187.652L58.8065 182.604L60.5259 181.289L86.4749 161.48L88.3899 160.018L101.877 149.722L101.881 149.719C101.881 149.719 116.467 173.485 137.666 166.419C158.865 159.352 158.402 139.09 158.402 139.09L222.658 161.679Z" fill="#2F2E41"/>
<path d="M76.5447 60.0304C76.5447 60.0304 90.9028 28.9212 118.422 36.1002C145.942 43.2793 161.497 54.0479 162.693 64.8164C163.89 75.585 162.095 91.7378 162.095 91.7378C162.095 91.7378 159.104 69.6025 139.96 74.3885C120.816 79.1745 90.9028 75.585 90.9028 75.585L86.1167 118.659C86.1167 118.659 80.7325 110.882 74.7499 115.668C68.7674 120.454 57.4006 69.6024 76.5447 60.0304Z" fill="#2F2E41"/>
<path d="M72.802 223.688C71.7003 223.245 70.6067 222.786 69.521 222.312C68.7797 221.989 68.0384 221.656 67.304 221.313C56.294 216.207 46.1511 209.41 37.2435 201.167C40.3975 196.87 42.9818 194.684 42.9818 194.684H64.1809L67.3589 205.371L72.802 223.688Z" fill="#2F2E41"/>
<path d="M204.088 159.353L222.274 162.565C217.407 173.652 210.834 183.908 202.794 192.962L204.088 159.353Z" fill="#2F2E41"/>
</g>
<defs>
<clipPath id="clip0">
<rect width="232" height="232" fill="white"/>
</clipPath>
</defs>
</svg>
